<svg xmlns="http://www.w3.org/2000/svg" viewBox="0 0 120 80"><rect x="0" y="0" width="120" height="80" fill="#fff"/><rect x="0" y="0.0" width="120" height="6.153846153846154" fill="#b22234"/><rect x="0" y="6.153846153846154" width="120" height="6.153846153846154" fill="#fff"/><rect x="0" y="12.307692307692308" width="120" height="6.153846153846154" fill="#b22234"/><rect x="0" y="18.46153846153846" width="120" height="6.153846153846154" fill="#fff"/><rect x="0" y="24.615384615384617" width="120" height="6.153846153846154" fill="#b22234"/><rect x="0" y="30.76923076923077" width="120" height="6.153846153846154" fill="#fff"/><rect x="0" y="36.92307692307692" width="120" height="6.153846153846154" fill="#b22234"/><rect x="0" y="43.07692307692308" width="120" height="6.153846153846154" fill="#fff"/><rect x="0" y="49.23076923076923" width="120" height="6.153846153846154" fill="#b22234"/><rect x="0" y="55.38461538461539" width="120" height="6.153846153846154" fill="#fff"/><rect x="0" y="61.53846153846154" width="120" height="6.153846153846154" fill="#b22234"/><rect x="0" y="67.6923076923077" width="120" height="6.153846153846154" fill="#fff"/><rect x="0" y="73.84615384615384" width="120" height="6.153846153846154" fill="#b22234"/><rect x="0" y="0" width="48" height="43" fill="#3c3b6e"/></svg>
